<?xml version="1.0" encoding="UTF-8" standalone="no"?>
<svg
   version="1.1"
   viewBox="0 0 503 158.625"
   id="svg34"
   sodipodi:docname="HUNTER_LOGO.svg"
   width="503"
   height="158.625"
   inkscape:version="1.4 (e7c3feb1, 2024-10-09)"
   xmlns:inkscape="http://www.inkscape.org/namespaces/inkscape"
   xmlns:sodipodi="http://sodipodi.sourceforge.net/DTD/sodipodi-0.dtd"
   xmlns="http://www.w3.org/2000/svg"
   xmlns:svg="http://www.w3.org/2000/svg">
  <sodipodi:namedview
     id="namedview34"
     pagecolor="#ffffff"
     bordercolor="#000000"
     borderopacity="0.25"
     inkscape:showpageshadow="2"
     inkscape:pageopacity="0.0"
     inkscape:pagecheckerboard="0"
     inkscape:deskcolor="#d1d1d1"
     inkscape:zoom="1"
     inkscape:cx="286.5"
     inkscape:cy="108"
     inkscape:window-width="1456"
     inkscape:window-height="779"
     inkscape:window-x="0"
     inkscape:window-y="38"
     inkscape:window-maximized="0"
     inkscape:current-layer="svg34" />
  <defs
     id="defs1">
    <style
       id="style1">
      .cls-1 {
        fill: #5f259f;
      }
    </style>
  </defs>
  <!-- Generator: Adobe Illustrator 28.7.1, SVG Export Plug-In . SVG Version: 1.2.0 Build 142)  -->
  <g
     id="g34"
     transform="translate(-38,-32)">
    <g
       id="Layer_1">
      <g
         id="Layer_1-2"
         data-name="Layer_1">
        <g
           id="g33">
          <path
             class="cls-1"
             d="M 40.1,132.9 V 40.8 H 67 V 72 H 92.4 V 40.8 h 26.9 v 92.1 H 92.4 V 97.2 H 67 v 35.7 z"
             id="path1" />
          <path
             class="cls-1"
             d="M 242.3,40.9"
             id="path2" />
          <path
             class="cls-1"
             d="m 304,40.8 h 75.3 V 65 h -24.2 v 67.9 H 328.2 V 65 H 304 Z"
             id="path3" />
          <path
             class="cls-1"
             d="M 386.2,132.9 V 40.8 h 66.9 v 21.5 h -40 v 13.2 h 33.8 v 21.4 h -33.8 v 14.5 h 41.6 v 21.5 z"
             id="path4" />
          <path
             class="cls-1"
             d="m 487.9,62.3 h 12.6 c 6.3,0 10.9,3.1 10.9,9.6 0,6.5 -4.5,8.7 -12.8,8.7 h -10.7 v -18.4 0 z m 8.3,38.5 c 12.6,0 14.4,4 14.4,16 0,12 0.7,14.1 1.4,16.2 h 27.2 v -2.9 c -3.2,0 -2.8,-4.1 -2.8,-16.1 0,-18.5 -5.2,-20.8 -13.9,-24.3 9.6,-2.9 13.8,-11.9 13.8,-22.5 0,-17.9 -9,-26.1 -36.3,-26.1 h -38.9 v 92 H 488 v -32.2 h 8.2 z"
             id="path5" />
          <path
             class="cls-1"
             d="m 180,40.8 v 55.6 c -0.1,9.5 -3.1,16.1 -12.6,16.1 -9.5,0 -12.8,-7.8 -12.8,-16.8 v -54.8 0 c 0,0 -27.1,0 -27.1,0 v 0 51.8 c -0.2,7.8 0.7,14.1 2.4,19.3 7.3,23.5 28.9,22.7 31.1,22.7 2.2,0 3.6,-0.2 5.3,-0.6 0.8,0 1.3,-0.1 1.4,-0.1 1,0 5.5,-0.9 12.3,-6.3 v 5.5 h 26.8 V 40.8 Z"
             id="path6" />
          <polygon
             class="cls-1"
             points="270.8,40.8 270.8,91 242.6,41.2 242.6,40.8 216.9,40.8 216.9,132.9 242.6,132.9 242.6,83 271.3,132.9 296.5,132.9 296.5,40.8 "
             id="polygon6" />
          <g
             id="g32">
            <path
               class="cls-1"
               d="m 40.2,146.7 h 21.1 l 0.2,6.3 h -0.9 c -0.4,-2 -1,-3.3 -1.7,-3.9 -0.7,-0.6 -2.1,-0.9 -4.3,-0.9 h -2 v 19.1 c 0,1.4 0.2,2.3 0.7,2.7 0.5,0.4 1.4,0.6 3,0.7 v 0.7 H 45.4 v -0.7 c 1.6,-0.1 2.6,-0.4 3,-0.8 0.4,-0.4 0.6,-1.4 0.6,-3 v -18.6 h -2.1 c -2.1,0 -3.5,0.3 -4.2,0.9 -0.7,0.6 -1.3,1.9 -1.7,3.9 h -0.9 l 0.2,-6.3 v 0 z"
               id="path7" />
            <path
               class="cls-1"
               d="m 62.6,170.8 c 1,-0.1 1.7,-0.4 2,-0.7 0.3,-0.4 0.5,-1.2 0.5,-2.5 v -17.4 c 0,-0.7 0,-1.2 -0.3,-1.5 -0.2,-0.3 -0.6,-0.5 -1.3,-0.5 -0.7,0 -0.3,0 -0.4,0 h -0.4 v -0.6 c 0.5,-0.2 1.2,-0.4 2,-0.6 0.8,-0.2 1.3,-0.4 1.6,-0.5 l 1.8,-0.6 v 0 11.4 c 0.8,-0.9 1.4,-1.5 2,-1.9 1.1,-0.7 2.2,-1.1 3.4,-1.1 2,0 3.3,0.8 4,2.5 0.4,0.9 0.6,2 0.6,3.4 v 7.4 c 0,1.3 0,2.1 0.4,2.5 0.4,0.4 0.9,0.6 1.8,0.8 v 0.5 h -7.9 v -0.5 c 1.1,-0.1 1.7,-0.4 2.1,-0.7 0.3,-0.4 0.5,-1.2 0.5,-2.5 v -7.3 c 0,-1.2 -0.2,-2.1 -0.6,-2.8 -0.4,-0.7 -1.1,-1.1 -2.2,-1.1 -1.1,0 -1.9,0.3 -2.8,1 -0.9,0.7 -1.3,1.1 -1.3,1.3 v 8.9 c 0,1.4 0.2,2.2 0.5,2.5 0.3,0.3 1,0.6 2,0.7 v 0.5 h -8.1 v -0.5 0 z"
               id="path8" />
            <path
               class="cls-1"
               d="m 93.9,156.1 c 1.3,1.2 1.9,2.9 1.9,5 H 84.2 c 0,2.8 0.8,4.9 1.9,6.2 1.1,1.3 2.5,1.9 4.1,1.9 1.6,0 2.3,-0.3 3.2,-1 0.9,-0.7 1.7,-1.6 2.4,-2.8 l 0.6,0.2 c -0.5,1.5 -1.4,3 -2.8,4.3 -1.4,1.3 -3,2 -5,2 -2,0 -4.1,-0.9 -5.3,-2.6 -1.2,-1.7 -1.9,-3.7 -1.9,-6 0,-2.3 0.7,-4.5 2.2,-6.3 1.4,-1.8 3.3,-2.7 5.7,-2.7 2.4,0 3.2,0.6 4.5,1.8 z m -8.7,1.3 c -0.4,0.7 -0.7,1.5 -0.8,2.5 h 7.7 c 0,-1.2 -0.4,-2.1 -0.7,-2.7 -0.6,-1.1 -1.6,-1.6 -3,-1.6 -1.4,0 -2.4,0.6 -3.2,1.8 z"
               id="path9" />
            <path
               class="cls-1"
               d="m 124.7,146.9 c 1.4,0.4 2.2,0.6 2.4,0.6 0.4,0 0.7,0 1,-0.3 0.3,-0.2 0.5,-0.5 0.7,-0.9 h 0.8 l 0.4,8.4 h -0.9 c -0.5,-1.7 -1.1,-3 -1.9,-4 -1.5,-1.9 -3.6,-2.9 -6.2,-2.9 -2.6,0 -4.7,1 -6.4,3.1 -1.7,2.1 -2.5,4.9 -2.5,8.5 0,3.6 0.9,6 2.6,8 1.7,2 3.9,3 6.6,3 2.7,0 3.7,-0.5 5.3,-1.4 0.9,-0.5 2,-1.3 3.1,-2.4 l 0.7,0.7 c -0.8,1 -1.9,2 -3.1,2.7 -2.1,1.3 -4.4,2 -6.8,2 -4,0 -7.2,-1.3 -9.5,-3.8 -2.2,-2.4 -3.3,-5.3 -3.3,-8.9 0,-3.6 1.1,-6.7 3.4,-9.1 2.4,-2.6 5.5,-3.9 9.4,-3.9 3.9,0 2.7,0.2 4.1,0.6 v 0 z"
               id="path10" />
            <path
               class="cls-1"
               d="m 132.4,170.8 c 1.3,-0.1 2.1,-0.3 2.4,-0.7 0.3,-0.3 0.5,-1.2 0.5,-2.6 v -8.6 c 0,-0.8 0,-1.3 -0.2,-1.7 -0.2,-0.5 -0.6,-0.8 -1.1,-0.8 -0.5,0 -0.3,0 -0.4,0 -0.1,0 -0.5,0.1 -1.1,0.3 v -0.6 l 0.8,-0.3 c 2.1,-0.7 3.6,-1.2 4.4,-1.6 0.3,-0.1 0.6,-0.2 0.7,-0.2 v 13.3 c 0,1.4 0.2,2.2 0.5,2.6 0.3,0.4 1.1,0.6 2.3,0.7 v 0.5 h -8.8 v -0.5 z m 2.8,-24.3 c 0.4,-0.4 0.8,-0.6 1.3,-0.6 0.5,0 1,0.2 1.3,0.6 0.4,0.4 0.6,0.8 0.6,1.4 0,0.6 -0.2,1 -0.6,1.3 -0.4,0.4 -0.8,0.6 -1.3,0.6 -0.5,0 -1,-0.2 -1.3,-0.6 -0.4,-0.4 -0.5,-0.8 -0.5,-1.3 0,-0.5 0.2,-1 0.5,-1.3 v 0 z"
               id="path11" />
            <path
               class="cls-1"
               d="m 151.4,154.6 v 1.3 h -3.7 v 10.4 c 0,0.9 0,1.6 0.2,2.1 0.3,0.8 0.9,1.2 1.7,1.2 0.8,0 0.8,-0.1 1.1,-0.3 0.3,-0.2 0.7,-0.5 1.1,-1 l 0.5,0.4 -0.4,0.6 c -0.6,0.9 -1.3,1.5 -2,1.8 -0.7,0.4 -1.4,0.5 -2,0.5 -1.4,0 -2.4,-0.6 -2.9,-1.9 -0.3,-0.7 -0.4,-1.6 -0.4,-2.9 v -11 h -2 c 0,0 -0.1,0 -0.1,-0.1 v 0 -0.4 l 0.5,-0.5 c 0.8,-0.7 1.4,-1.3 1.8,-1.7 0.4,-0.4 1.2,-1.6 2.6,-3.4 h 0.3 v 4.8 h 3.7 v 0 z"
               id="path12" />
            <path
               class="cls-1"
               d="m 152.8,154.6 h 7.7 v 0.5 c -0.6,0 -1.1,0 -1.3,0.2 -0.6,0.2 -0.8,0.5 -0.8,0.9 v 0.5 c 0,0.1 0.2,0.4 0.3,0.8 l 4.2,9.1 3.5,-9.2 c 0,0 0,-0.3 0.2,-0.7 0,-0.3 0.1,-0.6 0.1,-0.7 0,-0.3 -0.1,-0.6 -0.3,-0.7 -0.2,-0.1 -0.5,-0.2 -0.8,-0.3 H 165 v -0.6 h 5 v 0.5 c -0.5,0 -0.9,0.2 -1.1,0.5 -0.2,0.3 -0.5,0.7 -0.6,1.2 l -5.7,15.2 c -1,2.6 -1.9,4.5 -2.9,5.7 -0.9,1.2 -2.1,1.8 -3.5,1.8 -1.4,0 -1.3,-0.2 -1.9,-0.5 -0.6,-0.3 -0.9,-0.9 -0.9,-1.6 0,-0.7 0.2,-0.9 0.5,-1.2 0.4,-0.3 0.8,-0.5 1.3,-0.5 0.5,0 0.8,0.1 1.4,0.3 0.6,0.2 1.1,0.3 1.3,0.3 0.7,0 1.4,-0.8 2.1,-2.5 0.7,-1.6 1.1,-2.7 1.1,-3.3 0,-0.6 0,-0.2 0,-0.4 0,-0.2 0,-0.3 -0.1,-0.4 l -5.7,-12.4 c -0.4,-0.9 -0.8,-1.5 -1.1,-1.8 -0.3,-0.3 -0.8,-0.5 -1.4,-0.6 v -0.5 z"
               id="path13" />
            <path
               class="cls-1"
               d="m 191.4,146.7 v 0.7 c -1.4,0 -2.4,0.3 -2.8,0.7 -0.4,0.4 -0.6,1.3 -0.6,2.6 v 11.9 c 0,2 0.3,3.5 0.8,4.6 1,2 2.9,3 5.7,3 2.8,0 5.1,-1 6.1,-3.1 0.6,-1.1 0.9,-2.9 0.9,-5.3 v -9.7 c 0,-2 -0.2,-3.3 -0.7,-3.8 -0.5,-0.5 -1.4,-0.8 -2.8,-1 v -0.7 h 8.7 v 0.7 c -1.5,0.2 -2.4,0.5 -2.8,1 -0.4,0.5 -0.7,1.8 -0.7,3.7 v 9.7 c 0,2.6 -0.4,4.6 -1.2,6 -1.5,2.7 -4.2,4 -8.3,4 -4.1,0 -6.8,-1.3 -8.2,-3.9 -0.8,-1.4 -1.2,-3.3 -1.2,-5.6 v -11.6 c 0,-1.4 -0.2,-2.2 -0.6,-2.6 -0.4,-0.4 -1.3,-0.6 -2.7,-0.7 v -0.7 h 10.6 -0.2 z"
               id="path14" />
            <path
               class="cls-1"
               d="m 207.9,170.8 c 0.9,-0.1 1.5,-0.3 1.8,-0.6 0.3,-0.3 0.5,-1 0.5,-2.1 v -9.3 c 0,-0.8 0,-1.3 -0.2,-1.6 -0.2,-0.5 -0.7,-0.7 -1.4,-0.7 -0.7,0 -0.2,0 -0.3,0 h -0.4 v -0.6 c 0.5,-0.1 1.7,-0.5 3.5,-1.1 l 1.7,-0.6 h 0.2 v 2.9 c 1.1,-1 2,-1.7 2.6,-2.1 0.9,-0.6 1.9,-0.9 3,-0.9 1.1,0 1.6,0.2 2.3,0.7 1.3,0.9 2,2.6 2,4.9 v 8.5 c 0,0.9 0.2,1.5 0.5,1.9 0.3,0.4 0.9,0.6 1.8,0.6 v 0.5 h -7.8 v -0.5 c 0.9,-0.1 1.5,-0.4 1.9,-0.7 0.4,-0.4 0.5,-1.2 0.5,-2.4 v -7.8 c 0,-1 -0.2,-1.9 -0.6,-2.6 -0.4,-0.7 -1.1,-1 -2.1,-1 -1,0 -1.4,0.2 -2.2,0.7 -0.4,0.3 -0.9,0.7 -1.6,1.4 v 10.2 c 0,0.9 0.2,1.5 0.6,1.8 0.4,0.3 1,0.5 1.8,0.5 v 0.5 h -7.9 v -0.5 z"
               id="path15" />
            <path
               class="cls-1"
               d="m 226.6,170.8 c 1.3,-0.1 2.1,-0.3 2.4,-0.7 0.3,-0.3 0.5,-1.2 0.5,-2.6 v -8.6 c 0,-0.8 0,-1.3 -0.2,-1.7 -0.2,-0.5 -0.6,-0.8 -1.1,-0.8 -0.5,0 -0.3,0 -0.4,0 -0.1,0 -0.5,0.1 -1.1,0.3 v -0.6 l 0.8,-0.3 c 2.1,-0.7 3.6,-1.2 4.4,-1.6 0.3,-0.1 0.6,-0.2 0.7,-0.2 v 13.3 c 0,1.4 0.2,2.2 0.5,2.6 0.3,0.4 1.1,0.6 2.3,0.7 v 0.5 h -8.8 v -0.5 z m 2.9,-24.3 c 0.4,-0.4 0.8,-0.6 1.3,-0.6 0.5,0 1,0.2 1.3,0.6 0.4,0.4 0.6,0.8 0.6,1.4 0,0.6 -0.2,1 -0.6,1.3 -0.4,0.4 -0.8,0.6 -1.3,0.6 -0.5,0 -1,-0.2 -1.3,-0.6 -0.4,-0.4 -0.5,-0.8 -0.5,-1.3 0,-0.5 0.2,-1 0.5,-1.3 v 0 z"
               id="path16" />
            <path
               class="cls-1"
               d="m 244.2,154.4 v 0.6 c -0.6,0 -1.1,0.2 -1.3,0.3 -0.3,0.1 -0.4,0.4 -0.4,0.8 v 0.6 c 0,0.2 0.1,0.4 0.3,0.8 l 3.8,9.2 3.2,-8.1 c 0.2,-0.4 0.3,-0.8 0.4,-1.3 0.1,-0.4 0.2,-0.8 0.2,-1 0,-0.5 -0.2,-0.8 -0.7,-1 -0.3,-0.1 -0.6,-0.2 -1.1,-0.2 v -0.6 h 5.2 v 0.6 c -0.6,0 -1,0.2 -1.3,0.6 -0.3,0.3 -0.6,1.1 -1.1,2.4 l -5.2,13.1 c 0,0.2 -0.2,0.4 -0.2,0.5 0,0 -0.1,0.1 -0.3,0.1 -0.2,0 -0.2,0 -0.3,-0.2 0,-0.1 -0.2,-0.3 -0.3,-0.5 l -5.6,-13.3 c -0.4,-1.1 -0.9,-1.8 -1.4,-2.2 -0.3,-0.2 -0.7,-0.4 -1.3,-0.4 v -0.6 h 7.3 v -0.2 z"
               id="path17" />
            <path
               class="cls-1"
               d="m 267.9,156.1 c 1.3,1.2 1.9,2.9 1.9,5 h -11.6 c 0.1,2.8 0.8,4.9 1.9,6.2 1.1,1.3 2.5,1.9 4.1,1.9 1.6,0 2.3,-0.3 3.2,-1 0.9,-0.7 1.7,-1.6 2.4,-2.8 l 0.6,0.2 c -0.5,1.5 -1.4,3 -2.8,4.3 -1.4,1.3 -3,2 -5,2 -2,0 -4.1,-0.9 -5.3,-2.6 -1.2,-1.7 -1.9,-3.7 -1.9,-6 0,-2.3 0.7,-4.5 2.2,-6.3 1.5,-1.8 3.3,-2.7 5.7,-2.7 2.4,0 3.2,0.6 4.5,1.8 v 0 z m -8.7,1.3 c -0.4,0.7 -0.7,1.5 -0.8,2.5 h 7.7 c -0.1,-1.2 -0.4,-2.1 -0.7,-2.7 -0.6,-1.1 -1.6,-1.6 -3,-1.6 -1.4,0 -2.4,0.6 -3.2,1.8 z"
               id="path18" />
            <path
               class="cls-1"
               d="m 271.6,170.8 c 1.1,0 1.8,-0.3 2.2,-0.6 0.4,-0.3 0.5,-0.9 0.5,-1.9 v -8.2 c 0,-1.2 -0.1,-2.1 -0.3,-2.6 -0.2,-0.5 -0.6,-0.8 -1.2,-0.8 -0.6,0 -0.3,0 -0.5,0 -0.2,0 -0.4,0 -0.6,0.1 v -0.6 c 0.7,-0.2 1.4,-0.5 2.1,-0.7 0.7,-0.3 1.2,-0.4 1.5,-0.5 0.6,-0.2 1.2,-0.5 1.9,-0.8 h 0.2 v 3.4 c 0.8,-1.1 1.5,-1.9 2.2,-2.5 0.7,-0.6 1.5,-0.9 2.2,-0.9 0.7,0 1.1,0.2 1.5,0.6 0.4,0.4 0.6,0.8 0.6,1.4 0,0.6 -0.1,0.9 -0.4,1.3 -0.3,0.3 -0.7,0.5 -1.1,0.5 -0.4,0 -0.9,-0.2 -1.4,-0.6 -0.5,-0.4 -0.8,-0.6 -1.1,-0.6 -0.3,0 -0.9,0.3 -1.6,1 -0.7,0.7 -0.9,1.4 -0.9,2.1 v 8.2 c 0,1 0.2,1.8 0.7,2.2 0.5,0.4 1.3,0.6 2.4,0.6 v 0.6 h -9 v -0.6 0 z"
               id="path19" />
            <path
               class="cls-1"
               d="m 285.7,165.6 h 0.6 c 0.3,1.4 0.7,2.4 1.1,3.2 0.9,1.4 2.1,2 3.8,2 1.7,0 1.6,-0.3 2.2,-0.8 0.5,-0.5 0.8,-1.2 0.8,-2 0,-0.8 -0.2,-1 -0.5,-1.5 -0.3,-0.5 -0.8,-0.9 -1.6,-1.4 l -2.1,-1.2 c -1.5,-0.8 -2.6,-1.6 -3.3,-2.4 -0.7,-0.8 -1,-1.8 -1,-2.9 0,-1.1 0.5,-2.5 1.5,-3.3 1,-0.9 2.2,-1.3 3.7,-1.3 1.5,0 1.4,0.1 2.1,0.4 0.7,0.3 1.2,0.4 1.3,0.4 h 0.5 c 0,0 0.2,-0.2 0.3,-0.3 h 0.4 v 5.1 c 0.1,0 -0.4,0 -0.4,0 -0.2,-1.2 -0.6,-2.1 -1,-2.8 -0.8,-1.2 -1.9,-1.8 -3.3,-1.8 -1.4,0 -1.5,0.3 -2,0.8 -0.5,0.5 -0.7,1.1 -0.7,1.8 0,1.1 0.8,2.1 2.5,3 l 2.4,1.3 c 2.6,1.4 3.9,3 3.9,4.9 0,1.9 -0.5,2.6 -1.6,3.5 -1.1,0.9 -2.5,1.4 -4.2,1.4 -1.7,0 -1.6,-0.1 -2.5,-0.4 -0.9,-0.2 -1.5,-0.4 -1.6,-0.4 -0.1,0 -0.3,0 -0.4,0.2 -0.1,0.1 -0.2,0.2 -0.3,0.4 h -0.5 v -5.9 0 z"
               id="path20" />
            <path
               class="cls-1"
               d="m 299.1,170.8 c 1.3,-0.1 2.1,-0.3 2.4,-0.7 0.3,-0.3 0.5,-1.2 0.5,-2.6 v -8.6 c 0,-0.8 0,-1.3 -0.2,-1.7 -0.2,-0.5 -0.6,-0.8 -1.1,-0.8 -0.5,0 -0.3,0 -0.4,0 -0.1,0 -0.5,0.1 -1.1,0.3 v -0.6 l 0.8,-0.3 c 2.1,-0.7 3.6,-1.2 4.4,-1.6 0.3,-0.1 0.6,-0.2 0.7,-0.2 v 13.3 c 0,1.4 0.2,2.2 0.5,2.6 0.3,0.4 1.1,0.6 2.3,0.7 v 0.5 h -8.8 v -0.5 z m 2.8,-24.3 c 0.4,-0.4 0.8,-0.6 1.3,-0.6 0.5,0 1,0.2 1.3,0.6 0.4,0.4 0.6,0.8 0.6,1.4 0,0.6 -0.2,1 -0.6,1.3 -0.4,0.4 -0.8,0.6 -1.3,0.6 -0.5,0 -1,-0.2 -1.3,-0.6 -0.4,-0.4 -0.5,-0.8 -0.5,-1.3 0,-0.5 0.2,-1 0.5,-1.3 v 0 z"
               id="path21" />
            <path
               class="cls-1"
               d="m 318.1,154.6 v 1.3 h -3.7 v 10.4 c 0,0.9 0,1.6 0.2,2.1 0.3,0.8 0.9,1.2 1.7,1.2 0.8,0 0.8,-0.1 1.1,-0.3 0.3,-0.2 0.7,-0.5 1.1,-1 l 0.5,0.4 -0.4,0.6 c -0.6,0.9 -1.3,1.5 -2,1.8 -0.7,0.4 -1.4,0.5 -2,0.5 -1.4,0 -2.4,-0.6 -2.9,-1.9 -0.3,-0.7 -0.4,-1.6 -0.4,-2.9 v -11 h -2 c 0,0 -0.1,0 -0.1,-0.1 v 0 -0.4 c 0,0 0.2,-0.2 0.5,-0.5 0.8,-0.7 1.4,-1.3 1.8,-1.7 0.4,-0.4 1.2,-1.6 2.6,-3.4 h 0.3 v 4.8 h 3.7 v 0 z"
               id="path22" />
            <path
               class="cls-1"
               d="m 319.6,154.6 h 7.7 v 0.5 c -0.6,0 -1.1,0 -1.3,0.2 -0.6,0.2 -0.8,0.5 -0.8,0.9 v 0.5 c 0,0.2 0.2,0.4 0.3,0.8 l 4.2,9.1 3.5,-9.2 c 0,0 0,-0.3 0.2,-0.7 0,-0.3 0.1,-0.6 0.1,-0.7 0,-0.3 -0.1,-0.6 -0.3,-0.7 -0.2,-0.1 -0.5,-0.2 -0.8,-0.3 h -0.6 v -0.6 h 5 v 0.5 c -0.5,0 -0.9,0.2 -1.1,0.5 -0.2,0.3 -0.5,0.7 -0.6,1.2 l -5.7,15.2 c -1,2.6 -1.9,4.5 -2.9,5.7 -0.9,1.2 -2.1,1.8 -3.5,1.8 -1.4,0 -1.3,-0.2 -1.9,-0.5 -0.6,-0.3 -0.9,-0.9 -0.9,-1.6 0,-0.7 0.2,-0.9 0.5,-1.2 0.4,-0.3 0.8,-0.5 1.3,-0.5 0.5,0 0.8,0.1 1.4,0.3 0.6,0.2 1.1,0.3 1.3,0.3 0.7,0 1.4,-0.8 2.1,-2.5 0.7,-1.6 1.1,-2.7 1.1,-3.3 0,-0.6 0,-0.2 0,-0.4 0,-0.2 0,-0.3 -0.1,-0.4 l -5.7,-12.4 c -0.4,-0.9 -0.8,-1.5 -1.1,-1.8 -0.3,-0.3 -0.8,-0.5 -1.4,-0.6 v -0.5 z"
               id="path23" />
            <path
               class="cls-1"
               d="m 350.3,156.8 c 1.5,-1.7 3.5,-2.5 5.9,-2.5 2.4,0 4.4,0.8 6,2.4 1.6,1.6 2.4,3.7 2.4,6.3 0,2.6 -0.8,4.5 -2.3,6.3 -1.5,1.8 -3.5,2.7 -5.9,2.7 -2.4,0 -4.3,-0.9 -5.9,-2.6 -1.6,-1.7 -2.4,-3.9 -2.4,-6.4 0,-2.5 0.8,-4.5 2.3,-6.1 h -0.1 z m 2.9,-0.5 c -1.2,1.1 -1.8,3 -1.8,5.7 0,2.7 0.5,4.2 1.5,6 1,1.9 2.3,2.8 4.1,2.8 1.8,0 2.4,-0.6 3.1,-1.9 0.7,-1.2 1.1,-2.9 1.1,-4.9 0,-2 -0.5,-4.1 -1.4,-5.9 -0.9,-1.9 -2.3,-2.8 -4.1,-2.8 -1.8,0 -1.8,0.3 -2.5,0.9 v 0 z"
               id="path24" />
            <path
               class="cls-1"
               d="m 366.3,170.8 c 1.3,0 2.1,-0.3 2.5,-0.7 0.4,-0.4 0.6,-1.3 0.6,-2.6 v -11.7 h -3.1 v -1.2 h 3.1 c 0,-1.9 0.3,-3.6 0.8,-4.9 1,-2.5 2.8,-3.8 5.5,-3.8 2.7,0 2,0.2 2.9,0.6 0.8,0.4 1.3,1 1.3,1.7 0,0.7 -0.1,0.8 -0.4,1.1 -0.3,0.3 -0.6,0.5 -1.1,0.5 -0.5,0 -0.7,-0.1 -0.9,-0.3 -0.3,-0.2 -0.6,-0.6 -0.9,-1.1 l -0.3,-0.5 c -0.2,-0.3 -0.4,-0.5 -0.6,-0.7 -0.2,-0.2 -0.5,-0.3 -1,-0.3 -0.9,0 -1.5,0.5 -1.9,1.4 -0.2,0.5 -0.3,1.1 -0.3,1.9 v 4.4 h 4.5 v 1.2 h -4.5 v 11.7 c 0,1.4 0.2,2.2 0.6,2.6 0.4,0.4 1.3,0.6 2.9,0.7 v 0.5 h -9.7 z"
               id="path25" />
            <path
               class="cls-1"
               d="m 387.7,170.7 c 1.5,-0.2 2.5,-0.5 3,-1 0.4,-0.5 0.7,-1.8 0.7,-3.8 v -16.4 l -0.5,-0.6 c -0.5,-0.6 -1,-1 -1.4,-1.2 -0.4,-0.2 -1,-0.2 -1.7,-0.3 v -0.7 h 6.4 l 14.5,17.9 v -12.4 c 0,-2 -0.3,-3.4 -0.9,-4 -0.6,-0.6 -1.3,-0.7 -2.6,-0.8 v -0.7 h 8.7 v 0.7 c -1.4,0.1 -2.4,0.5 -2.8,1 -0.5,0.5 -0.7,1.8 -0.7,3.8 v 19.6 h -0.6 l -16.6,-20.4 v 14.5 c 0,2 0.3,3.4 0.9,4 0.6,0.6 1.3,0.7 2.6,0.8 v 0.7 h -8.8 v -0.7 z"
               id="path26" />
            <path
               class="cls-1"
               d="m 427.4,156.1 c 1.3,1.2 1.9,2.9 1.9,5 h -11.6 c 0.1,2.8 0.8,4.9 1.9,6.2 1.1,1.3 2.5,1.9 4.1,1.9 1.6,0 2.3,-0.3 3.2,-1 0.9,-0.7 1.7,-1.6 2.4,-2.8 l 0.6,0.2 c -0.5,1.5 -1.4,3 -2.8,4.3 -1.4,1.3 -3,2 -5,2 -2,0 -4.1,-0.9 -5.3,-2.6 -1.2,-1.7 -1.9,-3.7 -1.9,-6 0,-2.3 0.7,-4.5 2.2,-6.3 1.4,-1.8 3.3,-2.7 5.7,-2.7 2.4,0 3.2,0.6 4.5,1.8 v 0 z m -8.8,1.3 c -0.4,0.7 -0.7,1.5 -0.8,2.5 h 7.7 c -0.1,-1.2 -0.4,-2.1 -0.7,-2.7 -0.6,-1.1 -1.6,-1.6 -3,-1.6 -1.4,0 -2.4,0.6 -3.2,1.8 z"
               id="path27" />
            <path
               class="cls-1"
               d="m 448.2,155 c -0.7,0 -1.3,0.2 -1.6,0.4 -0.4,0.2 -0.5,0.5 -0.5,1 0,0.5 0,0.5 0.1,0.8 0,0.3 0.2,0.6 0.3,1 l 3.3,8.6 3.2,-7.9 c 0.1,-0.3 0.3,-0.8 0.5,-1.3 0.2,-0.6 0.3,-1 0.3,-1.2 0,-0.4 -0.1,-0.8 -0.4,-0.9 -0.3,-0.2 -0.7,-0.3 -1.2,-0.3 v -0.5 h 4.6 v 0.5 c -0.3,0 -0.6,0.2 -0.7,0.4 -0.2,0.2 -0.5,0.8 -0.8,1.6 l -5.8,14.3 c 0,0.1 0,0.2 -0.1,0.2 h -0.2 c -0.1,0 -0.2,-0.1 -0.3,-0.2 l -4.5,-11 -4.4,10.9 c 0,0 0,0.1 -0.1,0.2 h -0.2 c -0.1,0 -0.2,-0.1 -0.3,-0.2 L 434,158 c -0.6,-1.5 -1,-2.4 -1.2,-2.6 -0.2,-0.3 -0.6,-0.4 -1.1,-0.5 v -0.5 h 6.8 v 0.5 c -0.6,0 -1,0.2 -1.3,0.3 -0.3,0.2 -0.4,0.5 -0.4,1 0,0.5 0.2,1.2 0.7,2.6 0.3,0.8 0.7,1.7 1.1,2.8 l 2.1,5.1 3.2,-6.9 v -0.2 c 0,-0.2 0,-0.7 -0.4,-1.4 -0.3,-0.7 -0.5,-1.3 -0.8,-1.8 -0.2,-0.6 -0.5,-0.9 -0.8,-1.2 -0.3,-0.3 -0.7,-0.4 -1.3,-0.4 v -0.5 h 7.6 z"
               id="path28" />
            <path
               class="cls-1"
               d="m 478.3,146.7 v 0.7 c -0.9,0 -1.5,0 -2,0.2 -0.4,0.2 -0.7,0.5 -0.7,1 0,0.5 0,0.4 0.1,0.6 0,0.2 0.2,0.5 0.5,0.9 l 5.5,8.1 5.4,-8.2 c 0.2,-0.4 0.4,-0.6 0.4,-0.9 v -0.5 c 0,-0.5 -0.3,-0.9 -0.9,-1.1 -0.3,-0.1 -0.9,-0.2 -1.7,-0.2 v -0.7 h 8.1 v 0.7 c -0.7,0 -1.4,0.3 -2,0.7 -0.9,0.6 -2,1.8 -3.1,3.6 l -5.5,8.4 v 7.3 c 0,1.4 0.2,2.3 0.7,2.7 0.5,0.4 1.5,0.6 3.1,0.7 v 0.7 h -11.4 v -0.7 c 1.7,0 2.7,-0.3 3.1,-0.8 0.4,-0.4 0.6,-1.4 0.6,-3 v -6.5 l -4.9,-7.2 c -1.7,-2.5 -2.9,-4 -3.5,-4.7 -0.7,-0.7 -1.5,-1.1 -2.5,-1.1 v -0.7 z"
               id="path29" />
            <path
               class="cls-1"
               d="m 493.5,156.8 c 1.5,-1.7 3.5,-2.5 5.9,-2.5 2.4,0 4.4,0.8 6,2.4 1.6,1.6 2.4,3.7 2.4,6.3 0,2.6 -0.8,4.5 -2.3,6.3 -1.5,1.8 -3.5,2.7 -5.9,2.7 -2.4,0 -4.3,-0.9 -5.9,-2.6 -1.6,-1.7 -2.4,-3.9 -2.4,-6.4 0,-2.5 0.8,-4.5 2.3,-6.1 h -0.1 z m 3,-0.5 c -1.2,1.1 -1.8,3 -1.8,5.7 0,2.7 0.5,4.2 1.5,6 1,1.9 2.3,2.8 4.1,2.8 1.8,0 2.4,-0.6 3.1,-1.9 0.7,-1.2 1.1,-2.9 1.1,-4.9 0,-2 -0.5,-4.1 -1.4,-5.9 -0.9,-1.9 -2.3,-2.8 -4.1,-2.8 -1.8,0 -1.8,0.3 -2.5,0.9 v 0 z"
               id="path30" />
            <path
               class="cls-1"
               d="m 509.1,170.8 c 1.1,0 1.8,-0.3 2.2,-0.6 0.4,-0.3 0.5,-0.9 0.5,-1.9 v -8.2 c 0,-1.2 -0.1,-2.1 -0.3,-2.6 -0.2,-0.5 -0.6,-0.8 -1.2,-0.8 -0.6,0 -0.3,0 -0.5,0 -0.2,0 -0.4,0 -0.6,0.1 v -0.6 c 0.7,-0.2 1.4,-0.5 2.1,-0.7 0.7,-0.3 1.2,-0.4 1.5,-0.5 0.6,-0.2 1.2,-0.5 1.9,-0.8 h 0.2 v 3.4 c 0.8,-1.1 1.5,-1.9 2.2,-2.5 0.7,-0.6 1.5,-0.9 2.2,-0.9 0.7,0 1.1,0.2 1.5,0.6 0.4,0.4 0.6,0.8 0.6,1.4 0,0.6 0,0.9 -0.4,1.3 -0.3,0.3 -0.7,0.5 -1.1,0.5 -0.4,0 -0.9,-0.2 -1.4,-0.6 -0.5,-0.4 -0.8,-0.6 -1.1,-0.6 -0.3,0 -0.9,0.3 -1.6,1 -0.7,0.7 -0.9,1.4 -0.9,2.1 v 8.2 c 0,1 0.2,1.8 0.7,2.2 0.5,0.4 1.3,0.6 2.4,0.6 v 0.6 h -9 v -0.6 0 z"
               id="path31" />
            <path
               class="cls-1"
               d="m 521.4,170.8 c 1.2,0 1.9,-0.3 2.3,-0.6 0.4,-0.3 0.6,-1 0.6,-2 V 150 c 0,-0.9 0,-1.4 -0.4,-1.6 -0.3,-0.2 -0.7,-0.3 -1.3,-0.3 h -1.2 v -0.5 l 1.6,-0.4 c 1.3,-0.3 2.3,-0.6 3.2,-0.9 0.5,-0.2 0.8,-0.3 0.9,-0.3 0.1,0 0,0 0,0 v 15.5 l 5,-4.4 c 0.4,-0.3 0.6,-0.6 0.7,-0.8 0,-0.2 0.2,-0.4 0.2,-0.5 0,-0.3 0,-0.5 -0.4,-0.5 -0.4,0 -0.8,-0.1 -1.5,-0.2 v -0.5 h 7.6 v 0.5 c -1.4,0 -2.4,0.4 -3.3,0.8 -0.8,0.5 -2.4,1.8 -4.7,3.9 l -1.1,1 3.3,4.4 c 1.7,2.2 3,3.7 3.9,4.4 0.9,0.7 1.8,1.1 2.8,1.2 v 0.5 h -8.1 v -0.5 h 0.6 c 0.2,0 0.4,0 0.6,-0.2 0.2,0 0.3,-0.2 0.3,-0.4 v -0.4 c 0,-0.1 0,-0.3 -0.3,-0.4 L 527,162 v 6.8 c 0,0.8 0.3,1.4 0.9,1.7 0.4,0.2 1,0.3 1.9,0.3 v 0.5 h -8.7 v -0.5 h 0.2 z"
               id="path32" />
          </g>
        </g>
      </g>
    </g>
  </g>
</svg>
